<svg xmlns="http://www.w3.org/2000/svg" id="Grupo_3625" data-name="Grupo 3625" width="109.317" height="109.317" viewBox="0 0 109.317 109.317"><circle id="Elipse_198" data-name="Elipse 198" cx="54.659" cy="54.659" r="54.659" fill="#c0add4"></circle><path id="_7055166_business_consultation_target_success_goal_icon" data-name="7055166_business_consultation_target_success_goal_icon" d="M112.4,93.816,99.231,84.255h-.009l-9.55-6.932V55.433l10.477-9.186v4.106a.718.718,0,0,0,1.435,0V39.647l6.459-3.653a.718.718,0,0,0,.03-1.231l-6.822-4.314a.718.718,0,0,0-1.1.607V41a3,3,0,0,0-3.571.287l-7.02,6.154a5.9,5.9,0,0,0,.049-.733,5.778,5.778,0,0,0-11.557,0,5.9,5.9,0,0,0,.049.733L71.083,41.29a3,3,0,0,0-4.271.309,3.073,3.073,0,0,0,.3,4.3L77.99,55.427V77.318L55.258,93.823a.718.718,0,0,0,.842,1.161L70.186,84.761l.079.287a5.681,5.681,0,0,0,8.419,3.369l1.494-.9.287.372a5.635,5.635,0,0,0,4.514,2.252h.013a5.646,5.646,0,0,0,4.514-2.232l.238-.313.611.505a5.681,5.681,0,0,0,8.824-2.113l12.385,8.989a.718.718,0,1,0,.842-1.161ZM101.587,32.357l4.709,2.977L101.587,38Zm-22.1,14.36a4.343,4.343,0,1,1,7.43,3.051l-.118.1a.757.757,0,0,0-.073.079,4.336,4.336,0,0,1-5.793,0,.756.756,0,0,0-.073-.079l-.116-.1a4.327,4.327,0,0,1-1.253-3.051Zm-.066,8.37a.7.7,0,0,0-.007-.079.139.139,0,0,0-.01-.063.55.55,0,0,1-.022-.069.48.48,0,0,0-.024-.063.491.491,0,0,0-.033-.06.6.6,0,0,0-.036-.06c-.013-.017-.027-.034-.042-.05s-.034-.039-.053-.057l-.016-.016L68.058,44.822a1.635,1.635,0,0,1-.158-2.285,1.572,1.572,0,0,1,2.235-.162l9.639,8.451a5.765,5.765,0,0,0,8.112,0l9.639-8.451a1.539,1.539,0,0,1,1.148-.388,1.579,1.579,0,0,1,1.088.55,1.635,1.635,0,0,1-.161,2.285L88.483,54.569a.156.156,0,0,1-.016.016c-.006,0-.036.037-.053.057s-.029.033-.042.05a.608.608,0,0,0-.036.06.491.491,0,0,0-.033.06.479.479,0,0,0-.024.063c-.007.023-.016.046-.022.069s0,.042-.01.063a.7.7,0,0,0,0,.079q0,.011,0,.022V76.276l-3.7-2.678V66.721a.718.718,0,0,0-1.435,0V73.6l-3.689,2.678V55.109c0-.007,0-.014,0-.022ZM95.329,87.739a4.215,4.215,0,0,1-4.066-.746l-1.187-.977a.708.708,0,0,0-.538-.159.718.718,0,0,0-.488.277l-.692.9A4.126,4.126,0,0,1,84.979,88.7,4.22,4.22,0,0,1,81.6,87.02l-.67-.886a.718.718,0,0,0-.943-.181L77.947,87.19a4.247,4.247,0,0,1-6.294-2.522l-.221-.815,12.4-9L97.977,85.116a4.218,4.218,0,0,1-2.644,2.624Z" transform="translate(-29.192 -8.073)" fill="#fff" stroke="#fff" stroke-width="0.5"></path></svg>