<svg xmlns="http://www.w3.org/2000/svg" width="109.317" height="109.317" viewBox="0 0 109.317 109.317"><g id="Grupo_3651" data-name="Grupo 3651" transform="translate(-1521.12 -2033.693)"><g id="Grupo_3625" data-name="Grupo 3625" transform="translate(1521.12 2033.693)"><circle id="Elipse_198" data-name="Elipse 198" cx="54.659" cy="54.659" r="54.659" fill="#c0add4"></circle><g id="_4229861_head_jigsaw_mind_puzzle_solution_icon" data-name="4229861_head_jigsaw_mind_puzzle_solution_icon" transform="translate(6.337 20.547)"><path id="Caminho_258" data-name="Caminho 258" d="M51.391,5.89a21.268,21.268,0,0,0-21.6,21.274V28.9a4.587,4.587,0,0,1-1.411,2.058c-.208.208-.555.532-.948.9-1.341,1.295-1.942,1.873-2.127,2.127a4.5,4.5,0,0,0-.832,1.457,2.189,2.189,0,0,0,1.156,2.682,10.778,10.778,0,0,0,1.341.694c.393.185.763.347,1.156.509l.069.023.139.069c.324,2.15,1.549,10.244,1.572,10.29a4.685,4.685,0,0,0,1.387,3.1c1.341,1.226,3.145,1.179,4.6,1.133,1.064-.023,2.012-.023,2.983-.023.069.9.162,2.243.231,3.4s.162,2.335.208,3.26a1.9,1.9,0,0,0,1.873,1.757,2.024,2.024,0,0,0,.37-.046L65.1,57.595a2.767,2.767,0,0,0,2.22-2.682V50.635A38.122,38.122,0,0,1,70.56,35.512a21.363,21.363,0,0,0,1.734-8.833h0A21.177,21.177,0,0,0,51.391,5.89ZM68.479,34.656a40.444,40.444,0,0,0-3.422,16.025v4.278a.447.447,0,0,1-.37.439L41.586,60c-.046-.832-.116-1.827-.185-2.8-.277-4.3-.3-4.509-.347-4.694l-.231-.832H39.736c-1.295,0-2.5-.023-3.885.023-1.156.023-2.335.069-3.006-.532a2.685,2.685,0,0,1-.647-1.711c-.023-.092-1.642-10.868-1.642-10.868l-.046-.324-.208-.254-.254-.277a2.4,2.4,0,0,0-.763-.393l-.231-.092c-.37-.162-.717-.3-1.087-.486a10.267,10.267,0,0,1-1.11-.578,1.576,1.576,0,0,1-.162-.116,3.014,3.014,0,0,1,.393-.647c.185-.208,1.295-1.272,1.942-1.919.393-.37.74-.717.971-.925a6.337,6.337,0,0,0,2.081-3.4l.023-.092V27.164a18.975,18.975,0,0,1,37.946-.37A19.892,19.892,0,0,1,68.479,34.656Z" transform="translate(0 0)" fill="#fff"></path></g></g><g id="Grupo_3630" data-name="Grupo 3630" transform="translate(-2 2)"><path id="Caminho_261" data-name="Caminho 261" d="M3576.567,2069.509l-2.052,2.052.956,2.261,2.51,1.1,1.908-2.121-2.4-.848Z" transform="translate(-1988 -2.401)" fill="none" stroke="#fff" stroke-width="1.5"></path><line id="Linha_57" data-name="Linha 57" x1="8" y2="8" transform="translate(1579.5 2071.5)" fill="none" stroke="#fff" stroke-width="1.5"></line><g id="Elipse_199" data-name="Elipse 199" transform="translate(1578 2078)" fill="#fff" stroke="#fff" stroke-width="1.5"><circle cx="1.5" cy="1.5" r="1.5" stroke="none"></circle><circle cx="1.5" cy="1.5" r="0.75" fill="none"></circle></g><g id="Elipse_200" data-name="Elipse 200" transform="translate(1575 2075)" fill="none" stroke="#fff" stroke-width="1.5"><circle cx="4.5" cy="4.5" r="4.5" stroke="none"></circle><circle cx="4.5" cy="4.5" r="3.75" fill="none"></circle></g><g id="Elipse_201" data-name="Elipse 201" transform="translate(1571 2071)" fill="none" stroke="#fff" stroke-width="1.5"><circle cx="8.5" cy="8.5" r="8.5" stroke="none"></circle><circle cx="8.5" cy="8.5" r="7.75" fill="none"></circle></g></g></g></svg>