<svg xmlns="http://www.w3.org/2000/svg" id="Grupo_3625" data-name="Grupo 3625" width="109.317" height="109.317" viewBox="0 0 109.317 109.317"><circle id="Elipse_198" data-name="Elipse 198" cx="54.659" cy="54.659" r="54.659" fill="#c0add4"></circle><g id="Grupo_3624" data-name="Grupo 3624" transform="translate(26.466 24.165)"><g id="_7521091_ecology_hands_environment_nature_icon" data-name="7521091_ecology_hands_environment_nature_icon" transform="translate(0 10.172)"><path id="Caminho_255" data-name="Caminho 255" d="M15.214,58.087H29.341A1.09,1.09,0,0,0,30.432,57V51.038a21.9,21.9,0,0,0-6.4-15.524l-7.8-7.857a3.89,3.89,0,0,0-4.414-.782V12.3a4.053,4.053,0,1,0-8.106,0V29.058A14,14,0,0,0,5.36,35.625l8.761,16.386v4.984a1.09,1.09,0,0,0,1.092,1.092ZM7.289,34.6A11.793,11.793,0,0,1,5.9,29.058V12.3a1.87,1.87,0,1,1,3.74,0V29.711a3.87,3.87,0,0,0,1.1,3.453L18.375,40.7a1.091,1.091,0,1,0,1.533-1.552l-7.629-7.54a1.706,1.706,0,1,1,2.409-2.416l7.8,7.859a19.733,19.733,0,0,1,5.763,13.986V55.9H16.3V51.738a1.107,1.107,0,0,0-.128-.515Z" transform="translate(-3.718 -8.25)" fill="#fff"></path><path id="Caminho_256" data-name="Caminho 256" d="M17.5,58.087H31.621A1.09,1.09,0,0,0,32.712,57V52.011l8.76-16.386a14.007,14.007,0,0,0,1.642-6.566V12.3a4.053,4.053,0,1,0-8.106,0V26.874a3.9,3.9,0,0,0-1.48-.365,3.968,3.968,0,0,0-2.934,1.147l-7.8,7.857a21.9,21.9,0,0,0-6.4,15.524V57A1.09,1.09,0,0,0,17.5,58.087Zm1.091-7.049A19.729,19.729,0,0,1,24.35,37.052l7.8-7.859a1.707,1.707,0,1,1,2.411,2.416l-7.631,7.539A1.091,1.091,0,1,0,28.459,40.7l7.634-7.537a3.877,3.877,0,0,0,1.1-3.454V12.3a1.87,1.87,0,1,1,3.74,0V29.057a11.793,11.793,0,0,1-1.388,5.537L30.657,51.224a1.107,1.107,0,0,0-.127.515V55.9H18.588Z" transform="translate(12.122 -8.25)" fill="#fff"></path></g><g id="Layer_54" data-name="Layer 54" transform="translate(13.686)"><path id="Caminho_257" data-name="Caminho 257" d="M14.941,26.919a2.788,2.788,0,0,1-1.979-.818L3.391,16.531A8.1,8.1,0,0,1,1.05,10.723,7.489,7.489,0,0,1,8.614,3.29a7.489,7.489,0,0,1,5.4,2.221l.929.929.762-.762h0a7.8,7.8,0,0,1,10.221-.827,7.666,7.666,0,0,1,.753,11.485L16.92,26.1A2.788,2.788,0,0,1,14.941,26.919ZM8.576,5.139a5.687,5.687,0,0,0-3.958,1.6,5.575,5.575,0,0,0-1.71,4.023,6.244,6.244,0,0,0,1.812,4.46l9.571,9.571a.929.929,0,0,0,1.319,0l9.766-9.775a5.807,5.807,0,0,0,1.645-4.46,5.742,5.742,0,0,0-2.258-4.228,5.919,5.919,0,0,0-7.777.66L15.6,8.41a.929.929,0,0,1-1.319,0L12.7,6.83A5.835,5.835,0,0,0,8.614,5.139Z" transform="translate(-1.049 -3.29)" fill="#fff"></path></g></g></svg>